<svg width="37" height="48" viewBox="0 0 37 48" fill="none" xmlns="http://www.w3.org/2000/svg">
<path d="M18.4519 5.8513C19.7328 5.8513 20.7711 4.81295 20.7711 3.53209C20.7711 2.25123 19.7328 1.21289 18.4519 1.21289C17.171 1.21289 16.1327 2.25123 16.1327 3.53209C16.1327 4.81295 17.171 5.8513 18.4519 5.8513Z" stroke="#062237" stroke-width="2" stroke-miterlimit="10"/>
<path d="M25.4095 23.0126L17.4472 26.0267C16.6744 26.3365 15.3599 26.7225 14.5101 26.9544L2.91405 30.0472C2.56459 30.1793 2.17785 30.1728 1.83305 30.0289C1.48826 29.8851 1.21151 29.6149 1.0595 29.2736C0.82758 28.6557 1.29142 27.8821 2.14126 27.4961L10.8764 23.9403C11.818 23.5273 12.7232 23.0358 13.5824 22.4709L18.7617 18.915C19.4574 18.4512 20.5392 17.6014 21.0809 17.1375C21.3617 16.8138 21.5581 16.4255 21.6525 16.0074C21.7469 15.5893 21.7363 15.1543 21.6218 14.7413L21.3898 14.0455C21.113 13.3055 20.6625 12.6428 20.0762 12.1131C19.8064 11.9797 19.548 11.8246 19.3034 11.6493" stroke="#062237" stroke-width="2" stroke-linecap="round" stroke-linejoin="round"/>
<path d="M22 25.2201L23.7005 33.4914C23.8546 34.3412 24.0873 35.7328 24.1643 36.5826L24.7822 45.3177C24.8601 46.1684 25.401 46.8641 26.0197 46.8641C26.3816 46.8072 26.7092 46.617 26.938 46.3309C27.1669 46.0447 27.2804 45.6833 27.2563 45.3177L28.0291 35.2689C28.1062 34.4183 28.1062 33.0268 28.1062 32.1769V23.6737C28.1062 22.8231 28.0291 21.4315 28.0291 20.5817L27.4882 12.8513C27.3457 11.8867 26.945 10.9787 26.3286 10.2231L24.3184 8.13586" stroke="#062237" stroke-width="2" stroke-linecap="round" stroke-linejoin="round"/>
<path d="M36 1.13586L31.3616 4.15083C30.5007 4.69068 29.5954 5.15621 28.6555 5.54235L25.7955 6.62411C25.0227 6.93387 23.7082 7.39771 22.8584 7.62963L20.7711 8.24755C19.7887 8.55879 18.8527 9.00063 17.988 9.56122L15.8229 11.1076C14.9623 11.6475 14.0573 12.113 13.1177 12.4992L6.08386 15.0503M15.2107 3.25153C15.2107 3.25153 14.6771 3.23207 14.5035 3.56616C14.2984 3.95864 14.4954 5.02175 14.3008 5.59911C14.1172 6.17345 13.7485 6.67077 13.2523 7.01334" stroke="#062237" stroke-width="2" stroke-linecap="round" stroke-linejoin="round"/>
</svg>
