<svg width="46" height="46" viewBox="0 0 46 46" fill="none" xmlns="http://www.w3.org/2000/svg">
<path fill-rule="evenodd" clip-rule="evenodd" d="M15.8125 34.5C15.8125 34.1188 15.964 33.7531 16.2335 33.4835C16.5031 33.2139 16.8688 33.0625 17.25 33.0625H28.75C29.1312 33.0625 29.4969 33.2139 29.7665 33.4835C30.036 33.7531 30.1875 34.1188 30.1875 34.5C30.1875 34.8812 30.036 35.2469 29.7665 35.5165C29.4969 35.7861 29.1312 35.9375 28.75 35.9375H17.25C16.8688 35.9375 16.5031 35.7861 16.2335 35.5165C15.964 35.2469 15.8125 34.8812 15.8125 34.5Z" fill="#062237"/>
<path fill-rule="evenodd" clip-rule="evenodd" d="M16.675 2.39587H29.325C29.7467 2.39587 30.0706 2.39587 30.3524 2.42654C31.6029 2.5605 32.7643 3.13719 33.6268 4.05247C34.4894 4.96775 34.9962 6.16128 35.0559 7.41754C36.1805 7.75663 37.1682 8.44473 37.8759 9.38228C38.5837 10.3198 38.9748 11.4582 38.9927 12.6328C40.1446 12.9778 41.1394 13.524 41.952 14.4019C43.2017 15.7531 43.5889 17.4149 43.6042 19.3584C43.6176 21.2271 43.286 23.5885 42.872 26.519L42.0287 32.4875C41.7067 34.7799 41.4441 36.6429 41.0359 38.1015C40.6084 39.629 39.9779 40.8845 38.8125 41.8505C37.6549 42.8088 36.2825 43.2209 34.661 43.4164C33.0913 43.6042 31.1171 43.6042 28.6619 43.6042H17.3382C14.881 43.6042 12.9069 43.6042 11.339 43.4164C9.7156 43.2209 8.34327 42.8088 7.18561 41.8505C6.02027 40.8845 5.38969 39.6271 4.96227 38.1015C4.55402 36.6429 4.29144 34.7799 3.96752 32.4856L3.12611 26.519C2.71402 23.5865 2.3786 21.2271 2.39394 19.3584C2.40927 17.4149 2.79644 15.7531 4.04611 14.4019C4.85877 13.524 5.8516 12.9797 7.00352 12.6328C7.02197 11.4583 7.41355 10.3202 8.12162 9.38297C8.82969 8.44577 9.81754 7.75811 10.9423 7.41946C11.0014 6.16286 11.5081 4.96887 12.3707 4.05319C13.2333 3.13752 14.3949 2.56055 15.6458 2.42654C15.9275 2.39587 16.2514 2.39587 16.6712 2.39587H16.675ZM9.94369 12.1287C11.7185 11.9792 13.892 11.9792 16.5121 11.9792H29.4841C32.1023 11.9792 34.2758 11.9792 36.0525 12.1287C35.9198 11.5417 35.5913 11.0174 35.1211 10.6419C34.6508 10.2664 34.0668 10.0621 33.465 10.0625H12.5331C11.2509 10.0625 10.2101 10.9634 9.94752 12.1287H9.94369ZM30.0438 5.28621C31.0979 5.39737 31.9317 6.18321 32.1368 7.18754H13.8614C13.963 6.68922 14.2207 6.23619 14.597 5.89402C14.9732 5.55185 15.4486 5.33831 15.9544 5.28429C16.0617 5.27279 16.215 5.27087 16.7536 5.27087H29.2464C29.7831 5.27087 29.9364 5.27279 30.0457 5.28429L30.0438 5.28621ZM6.15827 16.353C6.73902 15.7263 7.6111 15.3104 9.30735 15.0842C11.0343 14.8542 13.3477 14.8523 16.6214 14.8523H29.3787C32.6524 14.8523 34.9658 14.8561 36.6927 15.0842C38.3889 15.3104 39.261 15.7263 39.8418 16.353C40.4091 16.9664 40.7177 17.8001 40.7292 19.3795C40.7407 21.0086 40.4417 23.1553 40.0085 26.2335L39.1978 31.9835C38.8566 34.4004 38.6189 36.0717 38.2682 37.3252C37.9289 38.5327 37.5322 39.1748 36.9783 39.6329C36.4167 40.1005 35.6615 40.3995 34.3179 40.5605C32.9399 40.7254 31.1382 40.7273 28.5679 40.7273H17.4321C14.8599 40.7273 13.0602 40.7254 11.6821 40.5605C10.3404 40.3976 9.58335 40.1005 9.02177 39.6348C8.46785 39.1748 8.0711 38.5308 7.73185 37.3252C7.3811 36.0717 7.14344 34.4004 6.80227 31.9835L5.99152 26.2335C5.55835 23.1572 5.25936 21.0086 5.27085 19.3795C5.28235 17.8001 5.59094 16.9645 6.15827 16.353Z" fill="#062237"/>
</svg>
