<svg width="46" height="46" viewBox="0 0 46 46" fill="none" xmlns="http://www.w3.org/2000/svg">
<path d="M6.89998 14.375C6.9007 13.7582 7.09973 13.1581 7.46767 12.6631C7.83562 12.1682 8.35297 11.8046 8.94334 11.6262C9.53371 11.4478 10.1658 11.464 10.7463 11.6724C11.3267 11.8807 11.8248 12.2702 12.167 12.7834C12.2508 12.9092 12.3586 13.0172 12.4841 13.1014C12.6097 13.1855 12.7506 13.2441 12.8989 13.2738C13.0471 13.3035 13.1997 13.3037 13.348 13.2744C13.4963 13.2451 13.6374 13.1869 13.7632 13.1031C13.889 13.0192 13.997 12.9115 14.0812 12.7859C14.1653 12.6603 14.2239 12.5194 14.2536 12.3712C14.2833 12.2229 14.2835 12.0703 14.2542 11.922C14.2249 11.7737 14.1667 11.6327 14.0829 11.5069C13.5872 10.7624 12.907 10.1591 12.1087 9.75584C11.3104 9.35257 10.4212 9.16309 9.52782 9.20588C8.63446 9.24866 7.76743 9.52225 7.01131 9.99995C6.25518 10.4777 5.63578 11.1432 5.2135 11.9316C4.79122 12.72 4.58048 13.6044 4.60184 14.4986C4.62321 15.3927 4.87594 16.266 5.33539 17.0334C5.79485 17.8007 6.44533 18.4359 7.22341 18.877C8.00149 19.318 8.88059 19.5499 9.77498 19.55C9.82572 19.5502 9.87643 19.5471 9.92678 19.5408C9.97636 19.547 10.0263 19.5501 10.0763 19.55H35.65C35.955 19.55 36.2475 19.4288 36.4631 19.2131C36.6788 18.9975 36.8 18.705 36.8 18.4C36.8 18.095 36.6788 17.8024 36.4631 17.5868C36.2475 17.3711 35.955 17.25 35.65 17.25H10.0763C10.0263 17.2498 9.97636 17.2529 9.92678 17.2592C9.87643 17.2528 9.82572 17.2497 9.77498 17.25C8.18798 17.25 6.89998 15.962 6.89998 14.375ZM19.55 11.5C19.245 11.5 18.9525 11.6211 18.7368 11.8368C18.5211 12.0524 18.4 12.345 18.4 12.65C18.4 12.955 18.5211 13.2475 18.7368 13.4631C18.9525 13.6788 19.245 13.8 19.55 13.8H40.25C40.555 13.8 40.8475 13.6788 41.0631 13.4631C41.2788 13.2475 41.4 12.955 41.4 12.65C41.4 12.345 41.2788 12.0524 41.0631 11.8368C40.8475 11.6211 40.555 11.5 40.25 11.5H19.55ZM12.65 23C12.345 23 12.0525 23.1211 11.8368 23.3368C11.6211 23.5524 11.5 23.845 11.5 24.15C11.5 24.4549 11.6211 24.7475 11.8368 24.9631C12.0525 25.1788 12.345 25.3 12.65 25.3H40.25C40.555 25.3 40.8475 25.1788 41.0631 24.9631C41.2788 24.7475 41.4 24.4549 41.4 24.15C41.4 23.845 41.2788 23.5524 41.0631 23.3368C40.8475 23.1211 40.555 23 40.25 23H12.65ZM4.59998 29.9C4.59998 29.595 4.72114 29.3024 4.9368 29.0868C5.15247 28.8711 5.44498 28.75 5.74998 28.75H33.35C33.655 28.75 33.9475 28.8711 34.1631 29.0868C34.3788 29.3024 34.5 29.595 34.5 29.9C34.5 30.205 34.3788 30.4975 34.1631 30.7131C33.9475 30.9288 33.655 31.05 33.35 31.05H5.74998C5.44498 31.05 5.15247 30.9288 4.9368 30.7131C4.72114 30.4975 4.59998 30.205 4.59998 29.9ZM12.65 34.5C12.345 34.5 12.0525 34.6211 11.8368 34.8368C11.6211 35.0524 11.5 35.345 11.5 35.65C11.5 35.955 11.6211 36.2475 11.8368 36.4631C12.0525 36.6788 12.345 36.7999 12.65 36.7999H40.2569C40.5619 36.7999 40.8544 36.6788 41.07 36.4631C41.2857 36.2475 41.4069 35.955 41.4069 35.65C41.4069 35.345 41.2857 35.0524 41.07 34.8368C40.8544 34.6211 40.5619 34.5 40.2569 34.5H12.65Z" fill="#062237"/>
</svg>
